<svg width="86" height="80" viewBox="0 0 86 80" fill="none" xmlns="http://www.w3.org/2000/svg">
<path d="M64.5 0.754028H21.5C9.627 0.754028 0 10.43 0 22.363V65.58C0 77.513 9.627 87.188 21.5 87.188H64.5C76.373 87.188 86 77.513 86 65.58V22.363C86 10.43 76.373 0.754028 64.5 0.754028Z" fill="url(#paint0_linear_2_715)"/>
<path d="M6.298 7.08398C4.29601 9.09238 2.70936 11.4756 1.62873 14.0974C0.548093 16.7192 -0.00535777 19.5282 3.89202e-07 22.364V65.58C3.89202e-07 77.513 9.627 87.189 21.5 87.189H64.5C70.438 87.189 75.813 84.771 79.702 80.859L6.298 7.08498V7.08398Z" fill="url(#paint1_linear_2_715)"/>
<path d="M87.133 40.927C86.6865 40.9129 86.2398 40.9056 85.793 40.905C60.911 40.905 40.738 61.215 40.738 86.266C40.738 86.717 40.746 87.168 40.76 87.616H56.704L73.82 71.479L87.133 57.093V40.927Z" fill="url(#paint2_linear_2_715)"/>
<path d="M55.45 86.231C55.45 86.697 55.46 87.157 55.482 87.617H62.627C76.161 87.617 87.133 76.57 87.133 62.944V55.75C86.676 55.73 86.219 55.717 85.757 55.717C69.018 55.717 55.449 69.378 55.449 86.231H55.45Z" fill="#32A37F"/>
<path d="M86.001 69.9621L17.156 0.925049C8.824 2.60805 2.225 9.08705 0.344002 17.3671L69.605 86.821C73.3592 85.9598 76.8147 84.1098 79.613 81.463C80.059 81.023 80.494 80.5741 80.925 80.1131C83.4884 77.2405 85.2404 73.7371 86.001 69.963V69.9621Z" fill="url(#paint3_linear_2_715)"/>
<mask id="mask0_2_715" style="mask-type:alpha" maskUnits="userSpaceOnUse" x="16" y="6" width="49" height="74">
<path d="M16.973 6.07898H64.499V79.632H16.973V6.07898Z" fill="#C4C4C4"/>
</mask>
<g mask="url(#mask0_2_715)">
<g filter="url(#filter0_d_2_715)">
<path d="M32.956 87.188H23.293V22.478C23.293 21.4172 23.7144 20.3997 24.4646 19.6496C25.2147 18.8995 26.2321 18.478 27.293 18.478H64.017V28.189H32.956V87.188Z" fill="white"/>
</g>
<path d="M30.538 62.423H25.707V22.905C25.707 22.3746 25.9177 21.8659 26.2928 21.4908C26.6679 21.1157 27.1766 20.905 27.707 20.905H64.015V25.761H30.538V62.423Z" fill="url(#paint4_linear_2_715)"/>
</g>
<defs>
<filter id="filter0_d_2_715" x="17.293" y="16.478" width="52.724" height="80.71" filterUnits="userSpaceOnUse" color-interpolation-filters="sRGB">
<feFlood flood-opacity="0" result="BackgroundImageFix"/>
<feColorMatrix in="SourceAlpha" type="matrix" values="0 0 0 0 0 0 0 0 0 0 0 0 0 0 0 0 0 0 127 0" result="hardAlpha"/>
<feOffset dy="4"/>
<feGaussianBlur stdDeviation="3"/>
<feColorMatrix type="matrix" values="0 0 0 0 0 0 0 0 0 0 0 0 0 0 0 0 0 0 0.15 0"/>
<feBlend mode="normal" in2="BackgroundImageFix" result="effect1_dropShadow_2_715"/>
<feBlend mode="normal" in="SourceGraphic" in2="effect1_dropShadow_2_715" result="shape"/>
</filter>
<linearGradient id="paint0_linear_2_715" x1="43" y1="87.188" x2="43" y2="0.754028" gradientUnits="userSpaceOnUse">
<stop offset="0.495" stop-color="#A2DD9A"/>
<stop offset="1" stop-color="#DDF2C2"/>
</linearGradient>
<linearGradient id="paint1_linear_2_715" x1="39.851" y1="87.189" x2="39.851" y2="7.08398" gradientUnits="userSpaceOnUse">
<stop stop-color="#32A5D8"/>
<stop offset="1" stop-color="#7CCEF6"/>
</linearGradient>
<linearGradient id="paint2_linear_2_715" x1="63.936" y1="40.905" x2="63.936" y2="87.616" gradientUnits="userSpaceOnUse">
<stop stop-color="white"/>
<stop offset="1" stop-color="#E6E6E6"/>
</linearGradient>
<linearGradient id="paint3_linear_2_715" x1="36.73" y1="53.366" x2="54.058" y2="37.669" gradientUnits="userSpaceOnUse">
<stop stop-color="#FFB24D"/>
<stop offset="1" stop-color="#FFDC7B"/>
</linearGradient>
<linearGradient id="paint4_linear_2_715" x1="42.032" y1="62.423" x2="42.032" y2="20.905" gradientUnits="userSpaceOnUse">
<stop stop-color="#32A37F"/>
<stop offset="1" stop-color="#A2DD9A"/>
</linearGradient>
</defs>
</svg>
